<svg width="684" height="111" viewBox="0 0 684 111" fill="none" xmlns="http://www.w3.org/2000/svg">
<path fill-rule="evenodd" clip-rule="evenodd" d="M73 77.6899L117.854 0L133.979 9.30939L89.1243 86.9993L73 77.6899Z" fill="black"/>
<path d="M155.396 87V1.90906H173.095V33.9012H173.635C174.411 32.1839 175.533 30.4389 177.001 28.6662C178.496 26.8657 180.435 25.37 182.818 24.1789C185.227 22.9602 188.219 22.3508 191.792 22.3508C196.445 22.3508 200.739 23.5696 204.672 26.0071C208.605 28.4169 211.749 32.0593 214.103 36.9343C216.458 41.7816 217.635 47.8615 217.635 55.174C217.635 62.2926 216.485 68.3032 214.186 73.2059C211.915 78.0809 208.813 81.7787 204.88 84.2993C200.974 86.7922 196.598 88.0387 191.75 88.0387C188.316 88.0387 185.394 87.4708 182.984 86.3352C180.602 85.1995 178.649 83.7731 177.125 82.0557C175.602 80.3107 174.439 78.5518 173.635 76.7791H172.846V87H155.396ZM172.721 55.0909C172.721 58.8856 173.248 62.1956 174.3 65.0209C175.353 67.8462 176.876 70.0483 178.87 71.6271C180.865 73.1782 183.288 73.9538 186.141 73.9538C189.022 73.9538 191.46 73.1644 193.454 71.5855C195.448 69.979 196.958 67.7631 197.983 64.9378C199.035 62.0848 199.561 58.8025 199.561 55.0909C199.561 51.4069 199.049 48.1662 198.024 45.3686C196.999 42.571 195.49 40.3828 193.495 38.8039C191.501 37.2251 189.05 36.4357 186.141 36.4357C183.261 36.4357 180.823 37.1974 178.829 38.7208C176.862 40.2443 175.353 42.4048 174.3 45.2024C173.248 48 172.721 51.2961 172.721 55.0909Z" fill="black"/>
<path d="M241.208 88.2049C237.136 88.2049 233.508 87.4986 230.323 86.0859C227.137 84.6456 224.617 82.5266 222.761 79.729C220.933 76.9037 220.019 73.386 220.019 69.1758C220.019 65.6303 220.67 62.6527 221.971 60.2429C223.273 57.8331 225.046 55.8941 227.29 54.4261C229.533 52.9581 232.081 51.8501 234.934 51.1022C237.815 50.3544 240.834 49.8281 243.992 49.5234C247.704 49.1356 250.695 48.7755 252.966 48.4432C255.238 48.0831 256.886 47.5568 257.911 46.8643C258.936 46.1718 259.448 45.147 259.448 43.7897V43.5405C259.448 40.9091 258.617 38.8732 256.955 37.4329C255.321 35.9925 252.994 35.2723 249.975 35.2723C246.79 35.2723 244.255 35.9787 242.372 37.3913C240.488 38.7762 239.242 40.5213 238.632 42.6264L222.262 41.2968C223.093 37.419 224.727 34.0674 227.165 31.2422C229.602 28.3892 232.746 26.201 236.596 24.6775C240.474 23.1264 244.961 22.3508 250.058 22.3508C253.603 22.3508 256.997 22.7663 260.237 23.5973C263.506 24.4282 266.4 25.7162 268.921 27.4613C271.469 29.2063 273.477 31.4499 274.945 34.1921C276.413 36.9066 277.148 40.1612 277.148 43.9559V87H260.362V78.1502H259.863C258.839 80.1445 257.467 81.9034 255.75 83.4268C254.033 84.9226 251.969 86.0998 249.559 86.9584C247.15 87.7894 244.366 88.2049 241.208 88.2049ZM246.277 75.9897C248.881 75.9897 251.18 75.4772 253.174 74.4524C255.168 73.3998 256.733 71.9872 257.869 70.2145C259.005 68.4417 259.573 66.4336 259.573 64.19V57.4176C259.019 57.7777 258.257 58.1101 257.287 58.4147C256.346 58.6917 255.279 58.9549 254.088 59.2042C252.897 59.4258 251.706 59.6335 250.515 59.8274C249.324 59.9936 248.244 60.1459 247.274 60.2844C245.197 60.5891 243.383 61.0738 241.831 61.7386C240.28 62.4034 239.075 63.3036 238.217 64.4392C237.358 65.5472 236.929 66.9321 236.929 68.5941C236.929 71.0039 237.801 72.8458 239.546 74.12C241.319 75.3664 243.563 75.9897 246.277 75.9897Z" fill="black"/>
<path d="M337.543 41.3799L321.339 42.3771C321.062 40.9922 320.467 39.7457 319.553 38.6378C318.638 37.5021 317.434 36.6019 315.938 35.9371C314.47 35.2446 312.711 34.8984 310.661 34.8984C307.919 34.8984 305.606 35.4801 303.723 36.6434C301.839 37.7791 300.897 39.3025 300.897 41.2137C300.897 42.7372 301.507 44.0252 302.725 45.0777C303.944 46.1303 306.035 46.9751 308.999 47.6122L320.55 49.9389C326.754 51.213 331.38 53.2628 334.427 56.088C337.474 58.9133 338.997 62.625 338.997 67.223C338.997 71.4055 337.765 75.0756 335.299 78.2333C332.862 81.3909 329.51 83.8561 325.245 85.6289C321.007 87.3739 316.118 88.2464 310.578 88.2464C302.13 88.2464 295.399 86.4875 290.386 82.9698C285.4 79.4243 282.478 74.6047 281.619 68.511L299.028 67.5969C299.554 70.1729 300.828 72.1395 302.85 73.4968C304.872 74.8263 307.462 75.4911 310.62 75.4911C313.722 75.4911 316.215 74.8956 318.098 73.7045C320.01 72.4858 320.979 70.9208 321.007 69.0096C320.979 67.403 320.3 66.0873 318.971 65.0625C317.641 64.0099 315.592 63.2066 312.822 62.6527L301.77 60.4506C295.538 59.2042 290.898 57.0437 287.851 53.9691C284.832 50.8945 283.322 46.9751 283.322 42.2109C283.322 38.1115 284.43 34.5799 286.646 31.6161C288.89 28.6523 292.034 26.3672 296.078 24.7606C300.149 23.1541 304.914 22.3508 310.37 22.3508C318.431 22.3508 324.774 24.0543 329.399 27.4613C334.053 30.8682 336.767 35.5078 337.543 41.3799Z" fill="black"/>
<path d="M361.407 50.1051V87H343.707V1.90906H360.908V34.4414H361.656C363.097 30.6743 365.423 27.7244 368.636 25.5916C371.85 23.4311 375.88 22.3508 380.727 22.3508C385.159 22.3508 389.023 23.3203 392.319 25.2592C395.643 27.1704 398.219 29.9265 400.047 33.5273C401.903 37.1005 402.817 41.3799 402.789 46.3657V87H385.09V49.5234C385.117 45.5902 384.12 42.5294 382.098 40.3412C380.104 38.153 377.306 37.0589 373.705 37.0589C371.296 37.0589 369.163 37.5714 367.307 38.5962C365.479 39.6211 364.038 41.1168 362.986 43.0834C361.961 45.0223 361.435 47.3629 361.407 50.1051Z" fill="black"/>
<path d="M428.481 88.2049C424.41 88.2049 420.781 87.4986 417.596 86.0859C414.41 84.6456 411.89 82.5266 410.034 79.729C408.206 76.9037 407.292 73.386 407.292 69.1758C407.292 65.6303 407.943 62.6527 409.244 60.2429C410.546 57.8331 412.319 55.8941 414.563 54.4261C416.806 52.9581 419.355 51.8501 422.208 51.1022C425.088 50.3544 428.107 49.8281 431.265 49.5234C434.977 49.1356 437.968 48.7755 440.24 48.4432C442.511 48.0831 444.159 47.5568 445.184 46.8643C446.209 46.1718 446.721 45.147 446.721 43.7897V43.5405C446.721 40.9091 445.89 38.8732 444.228 37.4329C442.594 35.9925 440.267 35.2723 437.248 35.2723C434.063 35.2723 431.528 35.9787 429.645 37.3913C427.761 38.7762 426.515 40.5213 425.905 42.6264L409.535 41.2968C410.366 37.419 412.001 34.0674 414.438 31.2422C416.876 28.3892 420.019 26.201 423.869 24.6775C427.747 23.1264 432.235 22.3508 437.331 22.3508C440.877 22.3508 444.27 22.7663 447.51 23.5973C450.779 24.4282 453.673 25.7162 456.194 27.4613C458.742 29.2063 460.751 31.4499 462.219 34.1921C463.687 36.9066 464.421 40.1612 464.421 43.9559V87H447.635V78.1502H447.137C446.112 80.1445 444.741 81.9034 443.023 83.4268C441.306 84.9226 439.242 86.0998 436.833 86.9584C434.423 87.7894 431.639 88.2049 428.481 88.2049ZM433.55 75.9897C436.154 75.9897 438.453 75.4772 440.447 74.4524C442.442 73.3998 444.007 71.9872 445.142 70.2145C446.278 68.4417 446.846 66.4336 446.846 64.19V57.4176C446.292 57.7777 445.53 58.1101 444.561 58.4147C443.619 58.6917 442.552 58.9549 441.361 59.2042C440.17 59.4258 438.979 59.6335 437.788 59.8274C436.597 59.9936 435.517 60.1459 434.547 60.2844C432.47 60.5891 430.656 61.0738 429.105 61.7386C427.553 62.4034 426.349 63.3036 425.49 64.4392C424.631 65.5472 424.202 66.9321 424.202 68.5941C424.202 71.0039 425.074 72.8458 426.819 74.12C428.592 75.3664 430.836 75.9897 433.55 75.9897Z" fill="black"/>
<path d="M484.306 87L466.939 23.1818H484.847L494.735 66.0596H495.317L505.621 23.1818H523.196L533.666 65.8103H534.206L543.928 23.1818H561.794L544.468 87H525.73L514.761 46.8643H513.972L503.003 87H484.306Z" fill="black"/>
<path d="M582.999 88.2049C578.927 88.2049 575.299 87.4986 572.113 86.0859C568.928 84.6456 566.407 82.5266 564.552 79.729C562.724 76.9037 561.809 73.386 561.809 69.1758C561.809 65.6303 562.46 62.6527 563.762 60.2429C565.064 57.8331 566.837 55.8941 569.08 54.4261C571.324 52.9581 573.872 51.8501 576.725 51.1022C579.606 50.3544 582.625 49.8281 585.783 49.5234C589.494 49.1356 592.486 48.7755 594.757 48.4432C597.029 48.0831 598.677 47.5568 599.701 46.8643C600.726 46.1718 601.239 45.147 601.239 43.7897V43.5405C601.239 40.9091 600.408 38.8732 598.746 37.4329C597.112 35.9925 594.785 35.2723 591.766 35.2723C588.58 35.2723 586.046 35.9787 584.162 37.3913C582.279 38.7762 581.032 40.5213 580.423 42.6264L564.053 41.2968C564.884 37.419 566.518 34.0674 568.956 31.2422C571.393 28.3892 574.537 26.201 578.387 24.6775C582.265 23.1264 586.752 22.3508 591.849 22.3508C595.394 22.3508 598.787 22.7663 602.028 23.5973C605.297 24.4282 608.191 25.7162 610.712 27.4613C613.26 29.2063 615.268 31.4499 616.736 34.1921C618.204 36.9066 618.938 40.1612 618.938 43.9559V87H602.153V78.1502H601.654C600.629 80.1445 599.258 81.9034 597.541 83.4268C595.824 84.9226 593.76 86.0998 591.35 86.9584C588.94 87.7894 586.157 88.2049 582.999 88.2049ZM588.068 75.9897C590.672 75.9897 592.971 75.4772 594.965 74.4524C596.959 73.3998 598.524 71.9872 599.66 70.2145C600.796 68.4417 601.363 66.4336 601.363 64.19V57.4176C600.809 57.7777 600.048 58.1101 599.078 58.4147C598.136 58.6917 597.07 58.9549 595.879 59.2042C594.688 59.4258 593.497 59.6335 592.306 59.8274C591.115 59.9936 590.035 60.1459 589.065 60.2844C586.988 60.5891 585.173 61.0738 583.622 61.7386C582.071 62.4034 580.866 63.3036 580.008 64.4392C579.149 65.5472 578.72 66.9321 578.72 68.5941C578.72 71.0039 579.592 72.8458 581.337 74.12C583.11 75.3664 585.353 75.9897 588.068 75.9897Z" fill="black"/>
<path d="M634.877 110.932C632.633 110.932 630.528 110.752 628.562 110.392C626.623 110.059 625.016 109.63 623.742 109.104L627.731 95.8913C629.808 96.5284 631.678 96.8746 633.34 96.93C635.029 96.9854 636.484 96.5976 637.702 95.7667C638.949 94.9357 639.96 93.523 640.735 91.5287L641.774 88.8281L618.881 23.1818H637.495L650.707 70.0483H651.372L664.709 23.1818H683.447L658.643 93.897C657.452 97.3316 655.831 100.323 653.782 102.871C651.76 105.447 649.197 107.428 646.095 108.813C642.993 110.225 639.254 110.932 634.877 110.932Z" fill="black"/>
<path d="M0 57.6208C0 41.2617 13.2617 28 29.6208 28C45.9798 28 59.2415 41.2617 59.2415 57.6208C59.2415 73.9798 45.9798 87.2415 29.6208 87.2415C13.2617 87.2415 0 73.9798 0 57.6208Z" fill="#FF0000"/>
</svg>
