<svg width="529" height="110" viewBox="0 0 529 110" fill="none" xmlns="http://www.w3.org/2000/svg">
<path d="M0.395508 86.0001V0.90918H18.0951V32.9014H18.6352C19.4108 31.184 20.5326 29.439 22.0006 27.6663C23.4964 25.8659 25.4353 24.3701 27.8174 23.1791C30.2272 21.9603 33.2187 21.3509 36.7918 21.3509C41.4452 21.3509 45.7385 22.5697 49.6718 25.0072C53.605 27.417 56.7488 31.0594 59.1033 35.9344C61.4577 40.7817 62.6349 46.8616 62.6349 54.1741C62.6349 61.2927 61.4854 67.3034 59.1864 72.2061C56.915 77.0811 53.8128 80.7789 49.8795 83.2995C45.974 85.7924 41.5976 87.0388 36.7503 87.0388C33.3156 87.0388 30.3934 86.471 27.9836 85.3353C25.6015 84.1997 23.6487 82.7732 22.1253 81.0558C20.6018 79.3108 19.4385 77.5519 18.6352 75.7792H17.8458V86.0001H0.395508ZM17.7211 54.091C17.7211 57.8857 18.2474 61.1958 19.3 64.021C20.3525 66.8463 21.876 69.0484 23.8703 70.6272C25.8646 72.1784 28.2883 72.9539 31.1413 72.9539C34.0219 72.9539 36.4594 72.1645 38.4538 70.5857C40.4481 68.9791 41.9577 66.7632 42.9825 63.938C44.0351 61.085 44.5613 57.8027 44.5613 54.091C44.5613 50.4071 44.0489 47.1663 43.0241 44.3687C41.9992 41.5711 40.4896 39.3829 38.4953 37.8041C36.501 36.2252 34.0496 35.4358 31.1413 35.4358C28.2606 35.4358 25.8231 36.1975 23.8287 37.721C21.8621 39.2444 20.3525 41.4049 19.3 44.2025C18.2474 47.0001 17.7211 50.2963 17.7211 54.091Z" fill="black"/>
<path d="M86.2081 87.205C82.1364 87.205 78.5078 86.4987 75.3225 85.086C72.1371 83.6457 69.6165 81.5267 67.7607 78.7291C65.9325 75.9039 65.0185 72.3861 65.0185 68.1759C65.0185 64.6304 65.6694 61.6528 66.9713 59.243C68.2731 56.8332 70.0458 54.8943 72.2894 53.4262C74.533 51.9582 77.0813 50.8502 79.9343 50.1024C82.815 49.3545 85.8342 48.8282 88.9918 48.5235C92.7035 48.1357 95.695 47.7757 97.9663 47.4433C100.238 47.0832 101.886 46.5569 102.911 45.8644C103.935 45.172 104.448 44.1471 104.448 42.7899V42.5406C104.448 39.9092 103.617 37.8733 101.955 36.433C100.321 34.9926 97.994 34.2725 94.9748 34.2725C91.7894 34.2725 89.255 34.9788 87.3715 36.3914C85.4879 37.7764 84.2415 39.5214 83.6321 41.6265L67.2621 40.297C68.093 36.4191 69.7273 33.0676 72.1648 30.2423C74.6023 27.3893 77.7461 25.2011 81.5963 23.6776C85.4741 22.1265 89.9613 21.3509 95.0579 21.3509C98.6034 21.3509 101.996 21.7664 105.237 22.5974C108.506 23.4284 111.4 24.7164 113.921 26.4614C116.469 28.2064 118.477 30.45 119.945 33.1922C121.413 35.9067 122.147 39.1613 122.147 42.9561V86.0001H105.362V77.1503H104.863C103.838 79.1446 102.467 80.9035 100.75 82.4269C99.0327 83.9227 96.9691 85.0999 94.5593 85.9585C92.1495 86.7895 89.3658 87.205 86.2081 87.205ZM91.277 74.9898C93.8807 74.9898 96.1797 74.4774 98.174 73.4525C100.168 72.3999 101.733 70.9873 102.869 69.2146C104.005 67.4418 104.572 65.4337 104.572 63.1901V56.4177C104.018 56.7778 103.257 57.1102 102.287 57.4149C101.346 57.6919 100.279 57.955 99.0881 58.2043C97.897 58.4259 96.706 58.6336 95.5149 58.8275C94.3239 58.9937 93.2436 59.146 92.2742 59.2845C90.1967 59.5892 88.3825 60.074 86.8313 60.7387C85.2802 61.4035 84.0753 62.3037 83.2166 63.4394C82.358 64.5473 81.9286 65.9323 81.9286 67.5942C81.9286 70.004 82.8012 71.846 84.5462 73.1201C86.3189 74.3666 88.5625 74.9898 91.277 74.9898Z" fill="black"/>
<path d="M182.543 40.3801L166.339 41.3772C166.062 39.9923 165.466 38.7458 164.552 37.6379C163.638 36.5022 162.433 35.602 160.938 34.9372C159.47 34.2448 157.711 33.8985 155.661 33.8985C152.919 33.8985 150.606 34.4802 148.723 35.6436C146.839 36.7792 145.897 38.3026 145.897 40.2139C145.897 41.7373 146.507 43.0253 147.725 44.0779C148.944 45.1304 151.035 45.9752 153.999 46.6123L165.55 48.939C171.754 50.2132 176.38 52.2629 179.427 55.0882C182.474 57.9134 183.997 61.6251 183.997 66.2231C183.997 70.4056 182.764 74.0757 180.299 77.2334C177.862 80.3911 174.51 82.8563 170.245 84.629C166.007 86.374 161.118 87.2465 155.578 87.2465C147.13 87.2465 140.399 85.4877 135.386 81.9699C130.4 78.4245 127.477 73.6049 126.619 67.5111L144.028 66.597C144.554 69.173 145.828 71.1396 147.85 72.4969C149.872 73.8264 152.462 74.4912 155.62 74.4912C158.722 74.4912 161.215 73.8957 163.098 72.7046C165.009 71.4859 165.979 69.9209 166.007 68.0097C165.979 66.4031 165.3 65.0874 163.971 64.0626C162.641 63.01 160.591 62.2068 157.822 61.6528L146.77 59.4507C140.538 58.2043 135.898 56.0438 132.851 52.9692C129.832 49.8946 128.322 45.9752 128.322 41.211C128.322 37.1116 129.43 33.58 131.646 30.6162C133.89 27.6524 137.034 25.3673 141.078 23.7607C145.149 22.1542 149.914 21.3509 155.37 21.3509C163.431 21.3509 169.774 23.0544 174.399 26.4614C179.053 29.8683 181.767 34.5079 182.543 40.3801Z" fill="black"/>
<path d="M206.407 49.1052V86.0001H188.707V0.90918H205.908V33.4415H206.656C208.097 29.6745 210.423 26.7245 213.636 24.5917C216.849 22.4312 220.88 21.3509 225.727 21.3509C230.159 21.3509 234.023 22.3204 237.319 24.2593C240.643 26.1705 243.219 28.9266 245.047 32.5274C246.903 36.1006 247.817 40.3801 247.789 45.3659V86.0001H230.089V48.5235C230.117 44.5903 229.12 41.5296 227.098 39.3414C225.104 37.1531 222.306 36.059 218.705 36.059C216.295 36.059 214.163 36.5715 212.307 37.5963C210.479 38.6212 209.038 40.1169 207.986 42.0835C206.961 44.0225 206.435 46.363 206.407 49.1052Z" fill="black"/>
<path d="M273.481 87.205C269.409 87.205 265.781 86.4987 262.596 85.086C259.41 83.6457 256.89 81.5267 255.034 78.7291C253.206 75.9039 252.292 72.3861 252.292 68.1759C252.292 64.6304 252.943 61.6528 254.244 59.243C255.546 56.8332 257.319 54.8943 259.563 53.4262C261.806 51.9582 264.354 50.8502 267.207 50.1024C270.088 49.3545 273.107 48.8282 276.265 48.5235C279.977 48.1357 282.968 47.7757 285.239 47.4433C287.511 47.0832 289.159 46.5569 290.184 45.8644C291.209 45.172 291.721 44.1471 291.721 42.7899V42.5406C291.721 39.9092 290.89 37.8733 289.228 36.433C287.594 34.9926 285.267 34.2725 282.248 34.2725C279.063 34.2725 276.528 34.9788 274.645 36.3914C272.761 37.7764 271.515 39.5214 270.905 41.6265L254.535 40.297C255.366 36.4191 257 33.0676 259.438 30.2423C261.875 27.3893 265.019 25.2011 268.869 23.6776C272.747 22.1265 277.234 21.3509 282.331 21.3509C285.876 21.3509 289.27 21.7664 292.51 22.5974C295.779 23.4284 298.673 24.7164 301.194 26.4614C303.742 28.2064 305.75 30.45 307.218 33.1922C308.686 35.9067 309.421 39.1613 309.421 42.9561V86.0001H292.635V77.1503H292.136C291.112 79.1446 289.74 80.9035 288.023 82.4269C286.306 83.9227 284.242 85.0999 281.832 85.9585C279.423 86.7895 276.639 87.205 273.481 87.205ZM278.55 74.9898C281.154 74.9898 283.453 74.4774 285.447 73.4525C287.441 72.3999 289.006 70.9873 290.142 69.2146C291.278 67.4418 291.846 65.4337 291.846 63.1901V56.4177C291.292 56.7778 290.53 57.1102 289.56 57.4149C288.619 57.6919 287.552 57.955 286.361 58.2043C285.17 58.4259 283.979 58.6336 282.788 58.8275C281.597 58.9937 280.517 59.146 279.547 59.2845C277.47 59.5892 275.656 60.074 274.104 60.7387C272.553 61.4035 271.348 62.3037 270.49 63.4394C269.631 64.5473 269.202 65.9323 269.202 67.5942C269.202 70.004 270.074 71.846 271.819 73.1201C273.592 74.3666 275.836 74.9898 278.55 74.9898Z" fill="black"/>
<path d="M329.306 86.0001L311.939 22.1819H329.846L339.735 65.0598H340.317L350.621 22.1819H368.196L378.666 64.8105H379.206L388.928 22.1819H406.794L389.468 86.0001H370.73L359.761 45.8644H358.972L348.003 86.0001H329.306Z" fill="black"/>
<path d="M427.999 87.205C423.927 87.205 420.299 86.4987 417.113 85.086C413.928 83.6457 411.407 81.5267 409.552 78.7291C407.723 75.9039 406.809 72.3861 406.809 68.1759C406.809 64.6304 407.46 61.6528 408.762 59.243C410.064 56.8332 411.837 54.8943 414.08 53.4262C416.324 51.9582 418.872 50.8502 421.725 50.1024C424.606 49.3545 427.625 48.8282 430.783 48.5235C434.494 48.1357 437.486 47.7757 439.757 47.4433C442.028 47.0832 443.676 46.5569 444.701 45.8644C445.726 45.172 446.239 44.1471 446.239 42.7899V42.5406C446.239 39.9092 445.408 37.8733 443.746 36.433C442.112 34.9926 439.785 34.2725 436.766 34.2725C433.58 34.2725 431.046 34.9788 429.162 36.3914C427.279 37.7764 426.032 39.5214 425.423 41.6265L409.053 40.297C409.884 36.4191 411.518 33.0676 413.956 30.2423C416.393 27.3893 419.537 25.2011 423.387 23.6776C427.265 22.1265 431.752 21.3509 436.849 21.3509C440.394 21.3509 443.787 21.7664 447.028 22.5974C450.297 23.4284 453.191 24.7164 455.712 26.4614C458.26 28.2064 460.268 30.45 461.736 33.1922C463.204 35.9067 463.938 39.1613 463.938 42.9561V86.0001H447.153V77.1503H446.654C445.629 79.1446 444.258 80.9035 442.541 82.4269C440.824 83.9227 438.76 85.0999 436.35 85.9585C433.94 86.7895 431.157 87.205 427.999 87.205ZM433.068 74.9898C435.672 74.9898 437.971 74.4774 439.965 73.4525C441.959 72.3999 443.524 70.9873 444.66 69.2146C445.795 67.4418 446.363 65.4337 446.363 63.1901V56.4177C445.809 56.7778 445.048 57.1102 444.078 57.4149C443.136 57.6919 442.07 57.955 440.879 58.2043C439.688 58.4259 438.497 58.6336 437.306 58.8275C436.115 58.9937 435.034 59.146 434.065 59.2845C431.988 59.5892 430.173 60.074 428.622 60.7387C427.071 61.4035 425.866 62.3037 425.007 63.4394C424.149 64.5473 423.719 65.9323 423.719 67.5942C423.719 70.004 424.592 71.846 426.337 73.1201C428.11 74.3666 430.353 74.9898 433.068 74.9898Z" fill="black"/>
<path d="M479.877 109.932C477.633 109.932 475.528 109.752 473.562 109.392C471.623 109.059 470.016 108.63 468.742 108.104L472.731 94.8914C474.808 95.5285 476.678 95.8747 478.34 95.9301C480.029 95.9855 481.483 95.5977 482.702 94.7668C483.949 93.9358 484.96 92.5232 485.735 90.5289L486.774 87.8282L463.881 22.1819H482.494L495.707 69.0484H496.372L509.709 22.1819H528.447L503.643 92.8971C502.452 96.3318 500.831 99.3232 498.781 101.872C496.759 104.448 494.197 106.428 491.095 107.813C487.993 109.226 484.253 109.932 479.877 109.932Z" fill="black"/>
</svg>
